Coordinates
version=1
nRows=20
nColumns=34
inDegrees=yes

Units are S.I. units (second, meters, Newtons, ...)
If the header above contains a line with 'inDegrees', this indicates whether rotational values are in degrees (yes) or radians (no).

endheader
time	pelvis_tilt	pelvis_list	pelvis_rotation	pelvis_tx	pelvis_ty	pelvis_tz	hip_flexion_r	hip_adduction_r	hip_rotation_r	knee_angle_r	ankle_angle_r	subtalar_angle_r	mtp_angle_r	hip_flexion_l	hip_adduction_l	hip_rotation_l	knee_angle_l	ankle_angle_l	subtalar_angle_l	mtp_angle_l	lumbar_extension	lumbar_bending	lumbar_rotation	arm_flex_r	arm_add_r	arm_rot_r	elbow_flex_r	pro_sup_r	arm_flex_l	arm_add_l	arm_rot_l	elbow_flex_l	pro_sup_l
      0.00000000	      1.91495464	     -0.39958826	      4.82767781	      0.31905821	      1.60237543	     -0.14840984	     -2.02760776	      1.10425939	     -2.49374469	      8.31140618	     -0.35682300	    -18.00683074	      0.00000000	     -1.51015021	      1.03260981	      1.36226375	      8.56592936	      0.19837126	    -16.18398418	      0.00000000	     -6.23676659	      7.02221630	     -2.21458119	     -8.25897853	     -7.43020419	      1.43938750	     30.48014079	     66.81370878	    -35.59817830	   -128.63868552	   -136.46212612	     82.81746770	     44.83690059
      0.01666670	     -1.62774725	     -1.10918924	      4.25078834	      0.32153920	      1.59374308	     -0.14997514	      1.34624081	      1.58403706	     -2.45917737	      7.38005187	     -0.27393537	    -14.28260313	      0.00000000	      1.95919800	      0.77471533	      1.75120916	      7.61403695	     -0.99630468	    -14.34689965	      0.00000000	     -2.47281433	      6.77922237	     -6.42908302	     -5.63719764	     -8.94775065	      1.67857331	     31.81129112	     76.43968277	    -21.98661191	   -129.88317926	   -125.66450857	     70.33002720	     50.58037236
      0.03333330	     -2.85344156	     -1.03533699	      3.79924300	      0.32289963	      1.59201899	     -0.14888798	      2.22401688	      1.47080152	     -3.41197912	      6.67060122	      0.41732804	    -12.84405770	      0.00000000	      3.34543007	      1.00888438	      1.31011289	      7.60842814	     -0.51375566	    -13.24504350	      0.00000000	     -1.06270673	      5.88013744	     -5.27536979	     -6.24889710	     -8.49928962	     -3.93431148	     33.72995449	     79.72807864	    -21.83761113	   -131.69726934	   -126.31470385	     70.24752542	     56.71984414
      0.05000000	     -3.44181226	     -0.87170573	      3.44405985	      0.32301031	      1.59075575	     -0.14872886	      2.79445915	      1.35070191	     -3.22227144	      6.29387160	      0.47261353	    -12.96279983	      0.00000000	      3.61539233	      1.33726412	      1.60691355	      6.90725286	     -1.44857072	    -14.24740746	      0.00000000	     -0.23823838	      5.13046508	     -3.37592379	     -7.88665977	     -8.16501303	     -6.25567684	     35.32216880	     88.34273231	    -25.89504342	   -133.76088670	   -133.56870591	     71.27059539	     72.72518407
      0.06666670	     -3.93509598	     -0.69143427	      3.23927965	      0.31286033	      1.59004429	     -0.15203793	      3.72341946	      1.05125397	     -3.27956548	      6.35123911	      1.26966839	    -13.23278576	      0.00000000	      4.35928921	      1.75312770	      1.88868520	      6.82522360	     -0.91873307	    -14.30687285	      0.00000000	      0.02413094	      4.79531319	     -3.27424359	     -7.46175790	     -8.01287626	     -6.46091660	     35.73272537	     88.47026273	    -25.65247623	   -134.38784656	   -133.48310966	     71.30494073	     73.01465243
      0.08333330	     -4.14009834	     -0.67094815	      3.26229540	      0.32358756	      1.58937395	     -0.14859377	      3.86740532	      1.06088676	     -3.32242981	      6.16276915	      1.44036942	    -13.40464190	      0.00000000	      4.54997606	      1.80297203	      2.17465658	      6.78171318	     -0.49738678	    -14.50140333	      0.00000000	      0.68821398	      4.60828724	     -3.31877715	     -7.87683407	     -7.72427441	     -6.84221832	     35.56065245	     88.83137615	    -26.02230874	   -134.45679946	   -133.33638276	     71.85528920	     73.52471650
      0.10000000	     -4.33992204	     -0.83269530	      3.18377979	      0.32394238	      1.58933981	     -0.14866049	      4.05749882	      1.26797972	     -3.36238611	      6.02349336	      1.29054331	    -13.95472173	      0.00000000	      4.69013793	      1.65787850	      2.52098761	      6.76957997	     -0.33701446	    -15.24794504	      0.00000000	      1.22440403	      5.01785841	     -2.10846364	     -8.91033297	     -6.81414532	    -12.03987298	     35.50256539	     97.82885396	    -28.80711548	   -134.94888335	   -137.40228889	     72.21040726	     81.84777615
      0.11666670	     -4.39227499	     -0.79686151	      2.91723273	      0.32390993	      1.58865769	     -0.14906415	      4.02797043	      1.25491538	     -3.13858402	      5.98260886	      1.58871084	    -13.98136485	      0.00000000	      4.64298897	      1.63629316	      2.68572264	      6.75210235	      0.14120949	    -15.41894957	      0.00000000	      1.52731488	      5.07564172	     -2.13992748	     -9.14743798	     -6.85737565	    -12.01332219	     35.38643950	     97.89225151	    -28.60603499	   -134.92422285	   -137.45923878	     72.14451672	     81.87722817
      0.13333330	     -5.05180961	     -0.87926759	      2.78732439	      0.31348891	      1.58787920	     -0.15274940	      5.03702796	      1.22388803	     -3.01593490	      6.27255470	      1.80818813	    -14.11631005	      0.00000000	      5.65821123	      1.63227405	      3.06755638	      7.09055071	      0.48549780	    -15.65228118	      0.00000000	      2.11650200	      5.33809296	     -2.18837878	     -8.61821089	     -7.19747119	    -11.92420578	     34.89831565	     98.38324119	    -28.50643084	   -134.92862856	   -137.36529223	     71.91547888	     82.13593690
      0.15000000	     -5.22252786	     -0.96356139	      2.60068491	      0.31341089	      1.58734779	     -0.15315181	      5.47010778	      1.24950049	     -2.93545578	      6.38823711	      1.79842608	    -14.28759481	      0.00000000	      6.01019952	      1.58009830	      3.39148198	      7.21344185	      0.76369840	    -15.89298091	      0.00000000	      2.15986677	      5.62092688	     -2.11051372	     -7.93724287	     -7.54553560	    -11.95926744	     34.90112353	     98.65837811	    -28.37431609	   -135.08727380	   -137.31394820	     71.61844851	     82.28132708
      0.16666670	     -5.26717875	     -0.95799537	      2.43920307	      0.31422643	      1.58779946	     -0.15273507	      5.64717728	      1.20842060	     -2.95491877	      6.39014457	      1.73181234	    -14.29538700	      0.00000000	      6.10673229	      1.59899680	      3.58374597	      7.19746696	      0.78684070	    -15.87375750	      0.00000000	      2.18268711	      5.70849232	     -2.00852161	     -7.54526652	     -7.85023447	    -12.03025891	     35.02394471	     98.68995862	    -28.36387300	   -135.18256205	   -137.28697148	     71.58647352	     82.30285483
      0.18333330	     -5.76472434	     -1.05656676	      2.22837949	      0.31354215	      1.59026761	     -0.15308145	      6.43186240	      1.27463344	     -2.50935052	      6.59402580	      1.27152543	    -14.91000253	      0.00000000	      6.81745092	      1.55597405	      4.17616158	      7.39819604	      0.24780332	    -17.18839403	      0.00000000	      2.53471941	      6.01895791	     -2.46195103	     -6.97797401	     -7.99920866	    -12.73218951	     34.81518543	    103.12619691	    -26.34217594	   -134.62232112	   -135.94264077	     71.49007123	     84.39087183
      0.20000000	     -5.77633494	     -1.12506656	      2.52099569	      0.32438803	      1.59065756	     -0.15725351	      6.23447055	      1.24716841	     -2.91654621	      6.48443860	      0.76568828	    -14.75269383	      0.00000000	      6.70529164	      1.53183296	      4.19124772	      7.32938396	     -0.03545025	    -16.99182498	      0.00000000	      2.85708497	      6.14198448	     -3.02388245	     -7.59661920	     -8.35987453	    -12.95297975	     34.72858180	    103.22673020	    -25.96188431	   -134.83054956	   -136.36186200	     71.74024619	     84.39191074
      0.21666670	     -5.81847938	     -1.21527572	      2.61123606	      0.32418033	      1.58972313	     -0.15775906	      6.09197466	      1.25960873	     -3.14093919	      6.39717405	      0.68347693	    -14.57649940	      0.00000000	      6.63154916	      1.52655501	      4.29590130	      7.24939732	      0.00811948	    -17.03797883	      0.00000000	      3.21552537	      6.45248865	     -3.21181906	     -8.22665290	     -8.68382697	    -13.38026530	     34.70320748	    103.33710322	    -25.61013472	   -134.95763514	   -136.61386494	     71.45565349	     84.41143005
      0.23333330	     -5.80309160	     -1.27668363	      2.91360199	      0.32449960	      1.58986191	     -0.15756323	      5.85968381	      1.26346495	     -3.40944569	      6.26707829	      0.58991993	    -14.51701218	      0.00000000	      6.46622752	      1.50732774	      4.41328387	      7.10861604	     -0.29516915	    -17.14244977	      0.00000000	      3.56198606	      6.60877750	     -3.54332989	     -8.71663553	     -8.75730565	    -13.95145801	     34.72069336	    103.43587109	    -25.51901046	   -135.17311080	   -136.64321304	     70.69417774	     84.45466900
      0.25000000	     -5.80693976	     -1.26941454	      2.92802671	      0.32422630	      1.58918364	     -0.15784022	      5.76266996	      1.21537954	     -3.46074197	      6.25556315	      0.62350741	    -14.53845966	      0.00000000	      6.37466041	      1.54949219	      4.31947940	      7.07913941	     -0.27260546	    -17.24133812	      0.00000000	      3.70828352	      6.65944817	     -3.60599091	     -8.92429285	     -8.86028862	    -14.06143512	     34.65277208	    103.44651279	    -25.41214699	   -135.22329642	   -136.67779472	     70.59992429	     84.46088871
      0.26666670	     -5.68511922	     -1.32205438	      3.15643341	      0.33543536	      1.58560723	     -0.15366314	      5.23383622	      1.35156258	     -3.59157929	      5.97673820	      0.79647357	    -14.38296863	      0.00000000	      6.00051783	      1.44833295	      4.66914959	      7.00709234	     -0.56717330	    -17.91985772	      0.00000000	      3.94676258	      6.45315242	     -3.61131774	     -9.52277978	     -8.32889675	    -15.75951835	     35.17251663	    103.72159999	    -24.98437195	   -136.06875960	   -136.25217218	     68.75360153	     84.65282401
      0.28333330	     -5.69164212	     -1.35083773	      3.27850593	      0.33488325	      1.58922021	     -0.15410497	      4.95301972	      1.46545994	     -3.51726071	      5.75458945	      0.84442235	    -14.33499007	      0.00000000	      5.69684358	      1.34169880	      4.53443022	      6.76710909	     -0.78826050	    -17.85125280	      0.00000000	      4.37162835	      6.39558379	     -3.92346566	     -9.65152307	     -8.16147774	    -15.94027550	     35.30662928	    103.77155778	    -25.14788590	   -135.94199728	   -136.19095513	     68.64172028	     84.68358313
      0.30000000	     -5.72713896	     -1.34514450	      3.34375352	      0.33457269	      1.58914495	     -0.15385056	      4.89065145	      1.51633126	     -3.49335621	      5.75943401	      0.84709272	    -14.32209463	      0.00000000	      5.60609450	      1.31310317	      4.52063307	      6.80022194	     -0.78699459	    -17.86035855	      0.00000000	      4.46758843	      6.33560944	     -3.89916767	     -9.64993597	     -8.14558459	    -15.94665425	     35.31665035	    103.77382967	    -25.13192486	   -135.90677908	   -136.20049922	     68.63410348	     84.68434902
      0.31666670	     -5.66591399	     -1.33112590	      3.40567172	      0.33462179	      1.58887968	     -0.15434561	      4.47069872	      1.58820808	     -3.20907035	      5.24216875	      0.90371769	    -14.08615280	      0.00000000	      5.22953321	      1.29108980	      4.44614238	      6.44009465	     -0.93948014	    -17.83125711	      0.00000000	      4.97459610	      6.31470952	     -4.39648720	     -9.69887122	     -7.94816897	    -16.20284292	     35.51187069	    103.83251638	    -25.68455545	   -135.85011958	   -135.88330967	     68.16374168	     84.73585279
